<svg width="196" height="196" viewBox="0 0 196 196" fill="none" xmlns="http://www.w3.org/2000/svg">
<g clip-path="url(#clip0_316_7252)">
<path d="M99.0521 85.5972C121.489 116.531 112.118 161.855 112.118 161.855C112.118 161.855 66.4223 156.908 44.0635 125.953C21.6267 95.02 30.9194 49.7165 30.9194 49.7165C30.9194 49.7165 76.6153 54.6639 98.974 85.6182L99.0521 85.5972Z" fill="#3AAA35"/>
<path d="M157.531 97.9471C151.152 135.692 112.15 161.351 112.15 161.351C112.15 161.351 83.5759 125.946 89.9544 88.2005C96.3536 50.5324 135.335 24.7968 135.335 24.7968C135.335 24.7968 163.909 60.2019 157.531 97.9471Z" fill="#008E39"/>
</g>
<defs>
<clipPath id="clip0_316_7252">
<rect width="160" height="160" fill="white" transform="translate(0.0205078 41.4316) rotate(-15)"/>
</clipPath>
</defs>
</svg>
