<svg width="48" height="48" viewBox="0 0 48 48" fill="none" xmlns="http://www.w3.org/2000/svg">
<path fill-rule="evenodd" clip-rule="evenodd" d="M33.57 24.3349C33.6074 21.4292 35.1308 18.7452 37.6063 17.2232C36.0375 14.9827 33.5041 13.6131 30.7702 13.5275C27.894 13.2256 25.1057 15.2486 23.64 15.2486C22.146 15.2486 19.8894 13.5575 17.4594 13.6075C14.2621 13.7108 11.3537 15.4846 9.79812 18.2798C6.48556 24.015 8.95643 32.4438 12.1296 37.0797C13.7172 39.3497 15.5726 41.8855 18.0004 41.7955C20.3762 41.697 21.2635 40.2806 24.1313 40.2806C26.9724 40.2806 27.8049 41.7955 30.2819 41.7384C32.8312 41.697 34.4374 39.4582 35.9693 37.1667C37.11 35.5492 37.9877 33.7615 38.5701 31.8698C35.5423 30.5892 33.5735 27.6224 33.57 24.3349Z" fill="#141414"/>
<path fill-rule="evenodd" clip-rule="evenodd" d="M28.8913 10.4787C30.2813 8.81012 30.9661 6.66538 30.8002 4.5C28.6767 4.72304 26.7151 5.73798 25.3063 7.34259C23.9152 8.92574 23.2105 10.9969 23.3473 13.1C25.4994 13.1221 27.5427 12.156 28.8913 10.4787Z" fill="#141414"/>
</svg>
