<svg width="176" height="176" viewBox="0 0 176 176" fill="none" xmlns="http://www.w3.org/2000/svg">
<path d="M57.2474 16.1333L61.2599 39.5391L73.0592 18.9149L68.8087 42.2698L86.9498 26.9203L74.9464 47.4259L97.2699 39.183L78.9589 54.3459L102.762 54.2271L80.353 62.2326L102.762 70.2381L78.9589 70.1194L97.2699 85.2992L74.9464 77.0563L86.9498 97.5619L68.8087 82.1954L73.0592 105.567L61.2599 84.9431L57.2474 108.349L53.235 84.9431L41.4356 105.567L45.6861 82.1954L27.5451 97.5619L39.5484 77.0563L17.2249 85.2992L35.536 70.1194L11.7333 70.2381L34.1418 62.2326L11.7333 54.2271L35.536 54.3459L17.2249 39.183L39.5484 47.4259L27.5451 26.9203L45.6861 42.2698L41.4356 18.9149L53.235 39.5391L57.2474 16.1333Z" fill="#F39208"/>
<path d="M113.3 41.9834C112.085 41.9834 111.1 42.9683 111.1 44.1834C111.1 45.3984 112.085 46.3834 113.3 46.3834H133.467C134.682 46.3834 135.667 45.3984 135.667 44.1834C135.667 42.9683 134.682 41.9834 133.467 41.9834H113.3Z" fill="#442A19"/>
<path d="M111.1 56.2834C111.1 55.0683 112.085 54.0834 113.3 54.0834H121.367C122.582 54.0834 123.567 55.0683 123.567 56.2834C123.567 57.4984 122.582 58.4834 121.367 58.4834H113.3C112.085 58.4834 111.1 57.4984 111.1 56.2834Z" fill="#442A19"/>
<path fill-rule="evenodd" clip-rule="evenodd" d="M104.225 27.8667C100.225 27.8667 96.9834 31.1083 96.9834 35.1084V78.4667C96.9834 79.278 97.4299 80.0235 98.1453 80.4064C98.8606 80.7892 99.7286 80.7473 100.404 80.2972L111.949 72.6H142.542C146.542 72.6 149.783 69.3584 149.783 65.3584V35.1084C149.783 31.1083 146.542 27.8667 142.542 27.8667H104.225ZM101.383 35.1084C101.383 33.5384 102.655 32.2667 104.225 32.2667H142.542C144.112 32.2667 145.383 33.5384 145.383 35.1084V65.3584C145.383 66.9284 144.112 68.2 142.542 68.2H111.283C110.849 68.2 110.424 68.3286 110.063 68.5695L101.383 74.356V35.1084Z" fill="#442A19"/>
<path fill-rule="evenodd" clip-rule="evenodd" d="M75.1667 50.2334C75.1667 52.9015 73.4903 55.1781 71.1334 56.0674V70.4C71.1334 71.6151 70.1484 72.6 68.9334 72.6C67.7183 72.6 66.7334 71.6151 66.7334 70.4V56.0674C64.3764 55.1781 62.7 52.9015 62.7 50.2334C62.7 46.7908 65.4908 44 68.9334 44C72.3759 44 75.1667 46.7908 75.1667 50.2334ZM68.9334 48.4C67.9208 48.4 67.1 49.2208 67.1 50.2334C67.1 51.2459 67.9208 52.0667 68.9334 52.0667C69.9459 52.0667 70.7667 51.2459 70.7667 50.2334C70.7667 49.2208 69.9459 48.4 68.9334 48.4Z" fill="#442A19"/>
<path fill-rule="evenodd" clip-rule="evenodd" d="M26.4 114.767C26.4 107.617 31.6464 101.693 38.5 100.635V92.5834C38.5 85.8003 44.0003 80.3 50.7834 80.3H87.0834C88.2984 80.3 89.2834 81.285 89.2834 82.5C89.2834 83.7151 88.2984 84.7 87.0834 84.7H50.7834C46.4304 84.7 42.9 88.2304 42.9 92.5834V136.95C42.9 141.303 46.4304 144.833 50.7834 144.833H119.35C123.703 144.833 127.233 141.303 127.233 136.95V92.5834C127.233 88.2304 123.703 84.7 119.35 84.7H113.3C112.085 84.7 111.1 83.7151 111.1 82.5C111.1 81.285 112.085 80.3 113.3 80.3H119.35C126.133 80.3 131.633 85.8003 131.633 92.5834V100.635C138.487 101.693 143.733 107.617 143.733 114.767C143.733 121.917 138.487 127.84 131.633 128.899V136.95C131.633 143.733 126.133 149.233 119.35 149.233H50.7834C44.0003 149.233 38.5 143.733 38.5 136.95V128.899C31.6464 127.84 26.4 121.917 26.4 114.767ZM30.8 114.767C30.8 110.055 34.0909 106.112 38.5 105.112V124.421C34.0909 123.421 30.8 119.479 30.8 114.767ZM139.333 114.767C139.333 119.479 136.042 123.421 131.633 124.421V105.112C136.042 106.112 139.333 110.055 139.333 114.767Z" fill="#442A19"/>
<path d="M68.9334 105.692C68.9334 107.362 67.579 108.717 65.9084 108.717C64.2377 108.717 62.8834 107.362 62.8834 105.692C62.8834 104.021 64.2377 102.667 65.9084 102.667C67.579 102.667 68.9334 104.021 68.9334 105.692Z" fill="#442A19"/>
<path d="M104.225 108.717C105.896 108.717 107.25 107.362 107.25 105.692C107.25 104.021 105.896 102.667 104.225 102.667C102.554 102.667 101.2 104.021 101.2 105.692C101.2 107.362 102.554 108.717 104.225 108.717Z" fill="#442A19"/>
<path fill-rule="evenodd" clip-rule="evenodd" d="M75.9917 120.633C71.9922 120.633 68.75 123.876 68.75 127.875C68.75 131.874 71.9922 135.117 75.9917 135.117H94.1417C98.1412 135.117 101.383 131.874 101.383 127.875C101.383 123.876 98.1412 120.633 94.1417 120.633H75.9917ZM73.15 127.875C73.15 126.306 74.4223 125.033 75.9917 125.033H94.1417C95.7111 125.033 96.9834 126.306 96.9834 127.875C96.9834 129.444 95.7111 130.717 94.1417 130.717H75.9917C74.4223 130.717 73.15 129.444 73.15 127.875Z" fill="#442A19"/>
</svg>
