<svg width="176" height="176" viewBox="0 0 176 176" fill="none" xmlns="http://www.w3.org/2000/svg">
<path d="M54.3142 79.2L58.3266 102.606L70.126 81.9815L65.8755 105.336L84.0165 89.987L72.0132 110.493L94.3367 102.25L76.0256 117.413L99.8283 117.294L77.4198 125.299L99.8283 133.305L76.0256 133.186L94.3367 148.366L72.0132 140.123L84.0165 160.629L65.8755 145.262L70.126 168.634L58.3266 148.01L54.3142 171.416L50.3017 148.01L38.5024 168.634L42.7529 145.262L24.6118 160.629L36.6152 140.123L14.2917 148.366L32.6027 133.186L8.80005 133.305L31.2086 125.299L8.80005 117.294L32.6027 117.413L14.2917 102.25L36.6152 110.493L24.6118 89.987L42.7529 105.336L38.5024 81.9815L50.3017 102.606L54.3142 79.2Z" fill="#F39208"/>
<path fill-rule="evenodd" clip-rule="evenodd" d="M49.5 24.9333C41.6017 24.9333 35.2 31.3351 35.2 39.2333V136.033C35.2 143.932 41.6017 150.333 49.5 150.333H138.233C139.448 150.333 140.433 149.348 140.433 148.133V27.1333C140.433 25.9183 139.448 24.9333 138.233 24.9333H49.5ZM49.5 145.933C44.0317 145.933 39.6 141.502 39.6 136.033C39.6 130.565 44.0317 126.133 49.5 126.133H136.033V133.833H53.5333C52.3183 133.833 51.3333 134.818 51.3333 136.033C51.3333 137.248 52.3183 138.233 53.5333 138.233H136.033V145.933H49.5ZM51.3333 121.733H49.5C45.6575 121.733 42.1692 123.248 39.6 125.714V39.2333C39.6 33.7651 44.0317 29.3333 49.5 29.3333H87.6333V69.4833C87.6333 70.2831 88.0673 71.0199 88.7668 71.4076C89.4663 71.7953 90.3211 71.7728 90.9993 71.3489L105.967 61.9944L120.934 71.3489C121.612 71.7728 122.467 71.7953 123.166 71.4076C123.866 71.0199 124.3 70.2831 124.3 69.4833V29.3333H136.033V121.733H55.7333V43.2667C55.7333 42.0517 54.7483 41.0667 53.5333 41.0667C52.3183 41.0667 51.3333 42.0517 51.3333 43.2667V121.733ZM92.0333 29.3333V65.514L104.801 57.5344C105.514 57.0885 106.419 57.0885 107.133 57.5344L119.9 65.514V29.3333H92.0333Z" fill="#442A19"/>
</svg>
