<svg width="176" height="176" viewBox="0 0 176 176" fill="none" xmlns="http://www.w3.org/2000/svg">
<path d="M46.0768 54.2666C47.8312 93.7947 60.3395 133.063 83.6001 154.474C79.5148 157.056 75.1646 159.356 70.5494 161.333C30.3624 144.114 10.2667 102.498 10.2667 62.3205C20.3933 62.3205 33.4969 59.3442 46.0768 54.2666Z" fill="#F39208"/>
<path fill-rule="evenodd" clip-rule="evenodd" d="M37.4 27.8667C36.1849 27.8667 35.2 28.8517 35.2 30.0667V134.933C35.2 136.148 36.1849 137.133 37.4 137.133H107.983C109.198 137.133 110.183 136.148 110.183 134.933C110.183 133.718 109.198 132.733 107.983 132.733H39.6V32.2667H132V72.3237C118.449 73.4417 107.8 84.7939 107.8 98.6334C107.8 107.055 111.743 114.555 117.883 119.389V147.034C117.883 147.818 118.301 148.543 118.979 148.936C119.657 149.33 120.494 149.333 121.175 148.944L134.2 141.501L147.225 148.944C147.906 149.333 148.743 149.33 149.421 148.936C150.099 148.543 150.517 147.818 150.517 147.034V119.389C156.657 114.555 160.6 107.055 160.6 98.6334C160.6 84.7939 149.951 73.4417 136.4 72.3237V30.0667C136.4 28.8517 135.415 27.8667 134.2 27.8667H37.4ZM121.309 116.463C121.348 116.489 121.386 116.516 121.423 116.545C125.025 119.119 129.435 120.633 134.2 120.633C138.964 120.633 143.375 119.119 146.977 116.545C147.014 116.516 147.052 116.489 147.091 116.463C152.61 112.466 156.2 105.969 156.2 98.6334C156.2 86.4831 146.35 76.6334 134.2 76.6334C122.05 76.6334 112.2 86.4831 112.2 98.6334C112.2 105.969 115.79 112.466 121.309 116.463ZM122.283 143.243V122.197C125.863 124.011 129.912 125.033 134.2 125.033C138.488 125.033 142.537 124.011 146.117 122.197V143.243L135.291 137.057C134.615 136.67 133.785 136.67 133.108 137.057L122.283 143.243Z" fill="#442A19"/>
<path d="M57.5666 56.1C56.3516 56.1 55.3666 57.085 55.3666 58.3C55.3666 59.5151 56.3516 60.5 57.5666 60.5H114.033C115.248 60.5 116.233 59.5151 116.233 58.3C116.233 57.085 115.248 56.1 114.033 56.1H57.5666Z" fill="#442A19"/>
<path d="M55.3666 82.5C55.3666 81.285 56.3516 80.3 57.5666 80.3H89.8333C91.0483 80.3 92.0333 81.285 92.0333 82.5C92.0333 83.7151 91.0483 84.7 89.8333 84.7H57.5666C56.3516 84.7 55.3666 83.7151 55.3666 82.5Z" fill="#442A19"/>
<path d="M57.5666 104.5C56.3516 104.5 55.3666 105.485 55.3666 106.7C55.3666 107.915 56.3516 108.9 57.5666 108.9H89.8333C91.0483 108.9 92.0333 107.915 92.0333 106.7C92.0333 105.485 91.0483 104.5 89.8333 104.5H57.5666Z" fill="#442A19"/>
</svg>
