<svg width="176" height="176" viewBox="0 0 176 176" fill="none" xmlns="http://www.w3.org/2000/svg">
<path d="M60.0521 54.4048C67.968 75.5183 55.9302 99.9854 55.9302 99.9854C55.9302 99.9854 31.1053 90.1608 23.2362 69.0473C15.3204 47.9338 27.3113 23.4667 27.3113 23.4667C27.3113 23.4667 52.1362 33.2913 60.0053 54.4048H60.0521Z" fill="#3AAA35"/>
<path d="M90.9195 70.4172C81.6921 91.0111 56.024 99.7021 56.024 99.7021C56.024 99.7021 45.3446 75.0933 54.572 54.4994C63.7994 33.9527 89.4675 25.2145 89.4675 25.2145C89.4675 25.2145 100.147 49.8233 90.9195 70.4172Z" fill="#008E39"/>
<path fill-rule="evenodd" clip-rule="evenodd" d="M93.4083 55.4583C93.4083 57.4971 92.814 59.397 91.7893 60.9944L109.872 79.0773C111.47 78.0526 113.37 77.4583 115.408 77.4583C117.447 77.4583 119.347 78.0526 120.945 79.0775L139.027 60.9947C138.003 59.3972 137.408 57.4972 137.408 55.4583C137.408 49.7882 142.005 45.1917 147.675 45.1917C153.345 45.1917 157.942 49.7882 157.942 55.4583C157.942 61.1284 153.345 65.725 147.675 65.725C145.636 65.725 143.736 65.1307 142.139 64.1059L124.056 82.1888C125.081 83.7862 125.675 85.6862 125.675 87.725C125.675 93.3951 121.078 97.9917 115.408 97.9917C109.738 97.9917 105.142 93.3951 105.142 87.725C105.142 85.6861 105.736 83.786 106.761 82.1885L88.6781 64.1057C87.0806 65.1306 85.1805 65.725 83.1416 65.725C81.1028 65.725 79.2028 65.1307 77.6054 64.1059L59.5225 82.1888C60.5473 83.7862 61.1416 85.6862 61.1416 87.725C61.1416 93.3951 56.5451 97.9917 50.8749 97.9917C45.2048 97.9917 40.6083 93.3951 40.6083 87.725C40.6083 82.0549 45.2048 77.4583 50.8749 77.4583C52.9138 77.4583 54.8139 78.0526 56.4113 79.0775L74.4941 60.9947C73.4693 59.3972 72.8749 57.4972 72.8749 55.4583C72.8749 49.7882 77.4715 45.1917 83.1416 45.1917C88.8117 45.1917 93.4083 49.7882 93.4083 55.4583ZM77.2749 55.4583C77.2749 52.2182 79.9015 49.5917 83.1416 49.5917C86.3817 49.5917 89.0083 52.2182 89.0083 55.4583C89.0083 57.0566 88.3691 58.5057 87.3324 59.5638C87.3179 59.5775 87.3036 59.5915 87.2894 59.6057C87.2751 59.62 87.2611 59.6344 87.2473 59.6489C86.1892 60.6857 84.7401 61.325 83.1416 61.325C81.5465 61.325 80.1 60.6884 79.0425 59.6554C79.0268 59.6386 79.0107 59.6221 78.9944 59.6057C78.978 59.5893 78.9614 59.5733 78.9447 59.5575C77.9116 58.5 77.2749 57.0535 77.2749 55.4583ZM119.517 83.5372C119.53 83.5507 119.543 83.5641 119.556 83.5774C119.569 83.5906 119.583 83.6037 119.596 83.6165C120.635 84.6749 121.275 86.1251 121.275 87.725C121.275 90.9651 118.648 93.5917 115.408 93.5917C112.168 93.5917 109.542 90.9651 109.542 87.725C109.542 86.1285 110.179 84.6809 111.214 83.6231C111.23 83.6082 111.245 83.5929 111.261 83.5774C111.265 83.5729 111.27 83.5685 111.274 83.564C111.285 83.5529 111.296 83.5417 111.307 83.5304C112.364 82.4959 113.812 81.8583 115.408 81.8583C117.008 81.8583 118.458 82.4987 119.517 83.5372ZM143.576 59.6553C144.633 60.6883 146.08 61.325 147.675 61.325C150.915 61.325 153.542 58.6984 153.542 55.4583C153.542 52.2182 150.915 49.5917 147.675 49.5917C144.435 49.5917 141.808 52.2182 141.808 55.4583C141.808 57.0535 142.445 58.5001 143.478 59.5576C143.495 59.5734 143.511 59.5894 143.528 59.6057C143.544 59.6221 143.56 59.6385 143.576 59.6553ZM54.9835 83.5372C53.9252 82.4987 52.4748 81.8583 50.8749 81.8583C47.6349 81.8583 45.0083 84.4849 45.0083 87.725C45.0083 90.9651 47.6349 93.5917 50.8749 93.5917C54.115 93.5917 56.7416 90.9651 56.7416 87.725C56.7416 86.1251 56.1012 84.6749 55.0628 83.6165L55.0385 83.593L55.0227 83.5774C55.0094 83.5641 54.9964 83.5507 54.9835 83.5372Z" fill="#442A19"/>
<path fill-rule="evenodd" clip-rule="evenodd" d="M75.0749 85.525C73.8599 85.525 72.8749 86.51 72.8749 87.725V148.225C72.8749 149.44 73.8599 150.425 75.0749 150.425H91.2083C92.4233 150.425 93.4083 149.44 93.4083 148.225V87.725C93.4083 86.51 92.4233 85.525 91.2083 85.525H75.0749ZM77.2749 146.025V89.925H89.0083V146.025H77.2749Z" fill="#442A19"/>
<path fill-rule="evenodd" clip-rule="evenodd" d="M105.142 119.992C105.142 118.777 106.127 117.792 107.342 117.792H123.475C124.69 117.792 125.675 118.777 125.675 119.992V148.225C125.675 149.44 124.69 150.425 123.475 150.425H107.342C106.127 150.425 105.142 149.44 105.142 148.225V119.992ZM109.542 122.192V146.025H121.275V122.192H109.542Z" fill="#442A19"/>
<path fill-rule="evenodd" clip-rule="evenodd" d="M40.6083 122.008C40.6083 120.793 41.5932 119.808 42.8083 119.808H58.9416C60.1566 119.808 61.1416 120.793 61.1416 122.008V148.225C61.1416 149.44 60.1566 150.425 58.9416 150.425H42.8083C41.5932 150.425 40.6083 149.44 40.6083 148.225V122.008ZM45.0083 124.208V146.025H56.7416V124.208H45.0083Z" fill="#442A19"/>
<path fill-rule="evenodd" clip-rule="evenodd" d="M137.408 87.725C137.408 86.51 138.393 85.525 139.608 85.525H155.742C156.957 85.525 157.942 86.51 157.942 87.725V148.225C157.942 149.44 156.957 150.425 155.742 150.425H139.608C138.393 150.425 137.408 149.44 137.408 148.225V87.725ZM141.808 89.925V146.025H153.542V89.925H141.808Z" fill="#442A19"/>
</svg>
