<svg width="176" height="176" viewBox="0 0 176 176" fill="none" xmlns="http://www.w3.org/2000/svg">
<path d="M124.481 53.8858C120.78 76.1286 98.1213 91.2989 98.1213 91.2989C98.1213 91.2989 81.5346 70.378 85.2766 48.1587C88.978 25.9159 111.596 10.7222 111.596 10.7222C111.596 10.7222 128.183 31.6431 124.441 53.8624L124.481 53.8858Z" fill="#3AAA35"/>
<path d="M143.207 83.1866C124.919 96.4078 98.3439 91.1004 98.3439 91.1004C98.3439 91.1004 101.4 64.4488 119.688 51.2277C137.952 38.0474 164.551 43.3139 164.551 43.3139C164.551 43.3139 161.495 69.9654 143.207 83.1866Z" fill="#008E39"/>
<path d="M35.2 38.1333C32.4771 38.1333 29.8658 39.215 27.9404 41.1403C26.015 43.0657 24.9333 45.6771 24.9333 48.4V92.7666C24.9333 95.4895 26.015 98.1009 27.9404 100.026C29.8658 101.952 32.4771 103.033 35.2 103.033H37.0333V115.699L56.0328 103.033H73.7V98.6333H54.7006L41.4333 107.478V98.6333H35.2C33.6441 98.6333 32.1519 98.0152 31.0517 96.915C29.9514 95.8148 29.3333 94.3226 29.3333 92.7666V48.4C29.3333 46.844 29.9514 45.3518 31.0517 44.2516C32.1519 43.1514 33.6441 42.5333 35.2 42.5333H83.6C85.156 42.5333 86.6482 43.1514 87.7484 44.2516C88.8486 45.3518 89.4667 46.844 89.4667 48.4V74.8H93.8667V48.4C93.8667 45.6771 92.785 43.0657 90.8596 41.1403C88.9343 39.215 86.3229 38.1333 83.6 38.1333H35.2Z" fill="#442A19"/>
<path fill-rule="evenodd" clip-rule="evenodd" d="M112.191 96.6166H119.543L128.67 128.561L124.439 129.77L121.986 121.183H109.748L107.294 129.77L103.064 128.561L112.191 96.6166ZM111.005 116.783H120.729L116.224 101.017H115.509L111.005 116.783Z" fill="#442A19"/>
<path fill-rule="evenodd" clip-rule="evenodd" d="M91.6667 82.5C88.9438 82.5 86.3324 83.5816 84.4071 85.507C82.4817 87.4324 81.4 90.0437 81.4 92.7666V137.133C81.4 139.856 82.4817 142.468 84.4071 144.393C86.3324 146.318 88.9438 147.4 91.6667 147.4H119.234L138.233 160.065V147.4H140.067C142.79 147.4 145.401 146.318 147.326 144.393C149.252 142.468 150.333 139.856 150.333 137.133V92.7666C150.333 90.0437 149.252 87.4324 147.326 85.507C145.401 83.5816 142.79 82.5 140.067 82.5H91.6667ZM87.5183 88.6183C88.6185 87.5181 90.1107 86.9 91.6667 86.9H140.067C141.623 86.9 143.115 87.5181 144.215 88.6183C145.315 89.7185 145.933 91.2107 145.933 92.7666V137.133C145.933 138.689 145.315 140.181 144.215 141.282C143.115 142.382 141.623 143 140.067 143H133.833V151.844L120.566 143H91.6667C90.1107 143 88.6185 142.382 87.5183 141.282C86.4181 140.181 85.8 138.689 85.8 137.133V92.7666C85.8 91.2107 86.4181 89.7185 87.5183 88.6183Z" fill="#442A19"/>
<path fill-rule="evenodd" clip-rule="evenodd" d="M41.0667 58.3H57.2V52.25H61.6V58.3H77.7333V62.7H70.5002C69.8494 66.9159 67.4175 71.5238 63.8172 75.5741C63.4565 75.9799 63.0825 76.3819 62.6957 76.7791C65.8987 79.2646 69.7539 81.3369 74.1211 82.5846L76.2364 83.189L75.0276 87.4197L72.9123 86.8153C67.7001 85.3261 63.1377 82.803 59.4 79.7812C55.6623 82.803 51.1 85.3261 45.8877 86.8153L43.7724 87.4197L42.5636 83.189L44.679 82.5846C49.0461 81.3369 52.9013 79.2646 56.1043 76.7791C55.7175 76.3819 55.3436 75.9799 54.9828 75.5741C51.3825 71.5238 48.9506 66.9159 48.2998 62.7H41.0667V58.3ZM59.4 73.8558C59.7912 73.4592 60.1675 73.0571 60.5286 72.6509C63.5633 69.2369 65.3977 65.6748 66.0278 62.7H52.7722C53.4023 65.6748 55.2367 69.2369 58.2714 72.6509C58.6325 73.0571 59.0089 73.4592 59.4 73.8558Z" fill="#442A19"/>
</svg>
