<svg width="176" height="176" viewBox="0 0 176 176" fill="none" xmlns="http://www.w3.org/2000/svg">
<path d="M138.479 119.106C138.479 133.046 127.179 144.346 113.24 144.346C99.3002 144.346 88 133.046 88 119.106C88 105.167 99.3002 93.8667 113.24 93.8667C127.179 93.8667 138.479 105.167 138.479 119.106Z" fill="#E7841B"/>
<path fill-rule="evenodd" clip-rule="evenodd" d="M110.822 27.0443C109.963 26.1851 108.57 26.1851 107.711 27.0443C106.852 27.9034 106.852 29.2964 107.711 30.1555L110.189 32.6332L64.9 77.922L62.4223 75.4443C61.5632 74.5851 60.1702 74.5851 59.3111 75.4443C58.4519 76.3034 58.4519 77.6964 59.3111 78.5555L83.5111 102.756L87.5444 106.789C88.4035 107.648 89.7965 107.648 90.6557 106.789C91.5148 105.93 91.5148 104.537 90.6557 103.678L88.178 101.2L103.217 86.1612L133.928 116.872C134.787 117.731 136.18 117.731 137.039 116.872L149.139 104.772C149.998 103.913 149.998 102.52 149.139 101.661L118.428 70.9499L133.467 55.9112L135.944 58.3889C136.804 59.248 138.197 59.248 139.056 58.3889C139.915 57.5297 139.915 56.1368 139.056 55.2776L110.822 27.0443ZM113.3 35.7445L68.0113 81.0332L85.0667 98.0886L101.658 81.497L101.661 81.4943L101.664 81.4916L130.355 52.7999L113.3 35.7445ZM144.472 103.217L115.317 74.0612L106.328 83.0499L135.483 112.205L144.472 103.217Z" fill="#442A19"/>
<path d="M26.4 147.583C26.4 146.368 27.385 145.383 28.6 145.383H105.233C106.448 145.383 107.433 146.368 107.433 147.583C107.433 148.798 106.448 149.783 105.233 149.783H28.6C27.385 149.783 26.4 148.798 26.4 147.583Z" fill="#442A19"/>
<path d="M38.6834 125.217C37.4683 125.217 36.4834 126.202 36.4834 127.417V137.5C36.4834 138.715 37.4683 139.7 38.6834 139.7C39.8984 139.7 40.8834 138.715 40.8834 137.5V129.617H92.95V137.5C92.95 138.715 93.935 139.7 95.15 139.7C96.3651 139.7 97.35 138.715 97.35 137.5V127.417C97.35 126.202 96.3651 125.217 95.15 125.217H38.6834Z" fill="#442A19"/>
<path d="M26.4 111.283C26.4 110.068 27.385 109.083 28.6 109.083H42.7167C43.9317 109.083 44.9167 110.068 44.9167 111.283C44.9167 112.498 43.9317 113.483 42.7167 113.483H28.6C27.385 113.483 26.4 112.498 26.4 111.283Z" fill="#442A19"/>
<path d="M41.9692 81.2078C41.11 80.3487 39.7171 80.3487 38.8579 81.2078C37.9988 82.067 37.9988 83.4599 38.8579 84.3191L48.8404 94.3016C49.6996 95.1607 51.0925 95.1607 51.9517 94.3016C52.8109 93.4424 52.8109 92.0495 51.9517 91.1903L41.9692 81.2078Z" fill="#442A19"/>
</svg>
