<svg width="48" height="48" viewBox="0 0 48 48" fill="none" xmlns="http://www.w3.org/2000/svg">
<path d="M22.9124 22.4243L7.64453 38.7004C8.07664 40.4289 9.66104 41.7252 11.6776 41.7252C12.3977 41.7252 13.1179 41.5812 13.8381 41.1491L31.1225 31.2105L22.9124 22.4243Z" fill="#EA4335"/>
<path d="M38.4685 19.6878L30.9786 15.3667L22.6245 22.8566L30.9786 31.2107L38.3245 26.8896C39.6208 26.1694 40.485 24.8731 40.485 23.2887C40.6291 21.7043 39.7649 20.408 38.4685 19.6878Z" fill="#FBBC04"/>
<path d="M7.64404 7.87683C7.5 8.1649 7.5 8.59701 7.5 8.88509V37.6924C7.5 38.1245 7.5 38.4126 7.64404 38.7006L23.488 22.8566L7.64404 7.87683Z" fill="#4285F4"/>
<path d="M23.0559 23.2887L30.9779 15.3667L13.6936 5.4282C13.1174 4.99609 12.3972 4.85205 11.533 4.85205C9.66055 4.85205 7.93211 6.14838 7.5 7.87682L23.0559 23.2887Z" fill="#34A853"/>
</svg>
