<svg width="176" height="176" viewBox="0 0 176 176" fill="none" xmlns="http://www.w3.org/2000/svg">
<path d="M121.123 29.3333C119.369 68.8613 106.861 108.13 83.6 129.541C87.6852 132.123 92.0355 134.422 96.6507 136.4C136.838 119.18 156.933 77.5648 156.933 37.3871C146.807 37.3871 133.703 34.4109 121.123 29.3333Z" fill="#F39208"/>
<path fill-rule="evenodd" clip-rule="evenodd" d="M44.6416 50.875C44.6416 34.0671 58.2671 20.4417 75.075 20.4417C91.8829 20.4417 105.508 34.0671 105.508 50.875C105.508 59.2344 102.135 67.7908 96.7275 74.2659C91.3181 80.7429 83.6873 85.3416 75.075 85.3416C66.4626 85.3416 58.8318 80.7429 53.4224 74.2659C48.0146 67.7908 44.6416 59.2344 44.6416 50.875ZM75.075 24.8417C60.6971 24.8417 49.0416 36.4971 49.0416 50.875C49.0416 58.1084 51.9889 65.6854 56.7995 71.4454C61.6086 77.2035 68.0945 80.9416 75.075 80.9416C82.0555 80.9416 88.5414 77.2035 93.3504 71.4454C98.161 65.6854 101.108 58.1084 101.108 50.875C101.108 36.4971 89.4528 24.8417 75.075 24.8417Z" fill="#442A19"/>
<path d="M28.9032 105.506C37.159 101.844 52.2925 97.075 75.075 97.075C79.4515 97.075 83.5391 97.2446 87.3476 97.5478C88.5588 97.6442 89.4625 98.7042 89.366 99.9154C89.2696 101.127 88.2096 102.03 86.9984 101.934C83.3089 101.64 79.3378 101.475 75.075 101.475C52.9265 101.475 38.3991 106.107 30.6868 109.528C27.121 111.109 24.8417 114.645 24.8417 118.568V137.408H95.2437C96.4587 137.408 97.4437 138.393 97.4437 139.608C97.4437 140.823 96.4587 141.808 95.2437 141.808H22.6417C21.4266 141.808 20.4417 140.823 20.4417 139.608V118.568C20.4417 112.929 23.7251 107.801 28.9032 105.506Z" fill="#442A19"/>
<path fill-rule="evenodd" clip-rule="evenodd" d="M114.413 126.885C112.572 128.635 110.082 129.708 107.342 129.708C101.672 129.708 97.075 125.112 97.075 119.442C97.075 113.772 101.672 109.175 107.342 109.175C110.082 109.175 112.572 110.249 114.413 111.998L125.678 106.047C125.437 105.175 125.308 104.257 125.308 103.308C125.308 97.6382 129.905 93.0416 135.575 93.0416C141.245 93.0416 145.842 97.6382 145.842 103.308C145.842 108.978 141.245 113.575 135.575 113.575C132.431 113.575 129.618 112.162 127.734 109.936L116.891 115.665C117.354 116.834 117.608 118.108 117.608 119.442C117.608 120.775 117.354 122.049 116.892 123.218L127.734 128.947C129.618 126.721 132.431 125.308 135.575 125.308C141.245 125.308 145.842 129.905 145.842 135.575C145.842 141.245 141.245 145.842 135.575 145.842C129.905 145.842 125.308 141.245 125.308 135.575C125.308 134.627 125.437 133.708 125.678 132.836L114.413 126.885ZM130.311 132.981C129.925 133.763 129.708 134.644 129.708 135.575C129.708 138.815 132.335 141.442 135.575 141.442C138.815 141.442 141.442 138.815 141.442 135.575C141.442 132.335 138.815 129.708 135.575 129.708C133.382 129.708 131.47 130.912 130.463 132.694C130.442 132.743 130.418 132.792 130.393 132.84C130.367 132.888 130.34 132.935 130.311 132.981ZM130.393 106.044C130.418 106.092 130.442 106.141 130.464 106.19C131.47 107.972 133.382 109.175 135.575 109.175C138.815 109.175 141.442 106.548 141.442 103.308C141.442 100.068 138.815 97.4416 135.575 97.4416C132.335 97.4416 129.708 100.068 129.708 103.308C129.708 104.239 129.925 105.12 130.311 105.901C130.34 105.947 130.367 105.995 130.393 106.044ZM112.2 122.731C112.837 121.793 113.208 120.661 113.208 119.442C113.208 118.222 112.836 117.09 112.2 116.152C112.14 116.079 112.085 116.001 112.034 115.919C110.963 114.496 109.26 113.575 107.342 113.575C104.102 113.575 101.475 116.202 101.475 119.442C101.475 122.682 104.102 125.308 107.342 125.308C109.26 125.308 110.963 124.388 112.033 122.965C112.084 122.882 112.14 122.804 112.2 122.731Z" fill="#442A19"/>
</svg>
