<svg width="176" height="176" viewBox="0 0 176 176" fill="none" xmlns="http://www.w3.org/2000/svg">
<path d="M150.333 88.2728C150.333 102.212 139.033 113.513 125.094 113.513C111.154 113.513 99.854 102.212 99.854 88.2728C99.854 74.3333 111.154 63.0331 125.094 63.0331C139.033 63.0331 150.333 74.3333 150.333 88.2728Z" fill="#E7841B"/>
<path d="M41.8 53.8999C40.585 53.8999 39.6 54.8849 39.6 56.0999C39.6 57.315 40.585 58.2999 41.8 58.2999H53.9C55.115 58.2999 56.1 57.315 56.1 56.0999C56.1 54.8849 55.115 53.8999 53.9 53.8999H41.8Z" fill="#442A19"/>
<path fill-rule="evenodd" clip-rule="evenodd" d="M118.25 56.0999C118.25 51.5436 121.944 47.8499 126.5 47.8499C131.056 47.8499 134.75 51.5436 134.75 56.0999C134.75 60.6563 131.056 64.3499 126.5 64.3499C121.944 64.3499 118.25 60.6563 118.25 56.0999ZM126.5 52.2499C124.374 52.2499 122.65 53.9736 122.65 56.0999C122.65 58.2262 124.374 59.9499 126.5 59.9499C128.626 59.9499 130.35 58.2262 130.35 56.0999C130.35 53.9736 128.626 52.2499 126.5 52.2499Z" fill="#442A19"/>
<path d="M70.0333 53.8999C68.8183 53.8999 67.8333 54.8849 67.8333 56.0999C67.8333 57.315 68.8183 58.2999 70.0333 58.2999H82.1333C83.3484 58.2999 84.3333 57.315 84.3333 56.0999C84.3333 54.8849 83.3484 53.8999 82.1333 53.8999H70.0333Z" fill="#442A19"/>
<path fill-rule="evenodd" clip-rule="evenodd" d="M25.6667 33.7333C24.4516 33.7333 23.4667 34.7182 23.4667 35.9333V76.2666C23.4667 77.4816 24.4516 78.4666 25.6667 78.4666H39.6V90.3833C39.6 91.5983 40.585 92.5833 41.8 92.5833C43.015 92.5833 44 91.5983 44 90.3833V78.4666H128.333V90.3833C128.333 91.5983 129.318 92.5833 130.533 92.5833C131.748 92.5833 132.733 91.5983 132.733 90.3833V78.4666H146.667C147.882 78.4666 148.867 77.4816 148.867 76.2666V35.9333C148.867 34.7182 147.882 33.7333 146.667 33.7333H25.6667ZM144.467 74.0666V38.1333H27.8667V74.0666H144.467Z" fill="#442A19"/>
<path d="M39.6 120.633C39.6 119.418 40.585 118.433 41.8 118.433H53.9C55.115 118.433 56.1 119.418 56.1 120.633C56.1 121.848 55.115 122.833 53.9 122.833H41.8C40.585 122.833 39.6 121.848 39.6 120.633Z" fill="#442A19"/>
<path d="M67.8333 120.633C67.8333 119.418 68.8183 118.433 70.0333 118.433H82.1333C83.3484 118.433 84.3333 119.418 84.3333 120.633C84.3333 121.848 83.3484 122.833 82.1333 122.833H70.0333C68.8183 122.833 67.8333 121.848 67.8333 120.633Z" fill="#442A19"/>
<path fill-rule="evenodd" clip-rule="evenodd" d="M126.5 112.383C121.944 112.383 118.25 116.077 118.25 120.633C118.25 125.19 121.944 128.883 126.5 128.883C131.056 128.883 134.75 125.19 134.75 120.633C134.75 116.077 131.056 112.383 126.5 112.383ZM122.65 120.633C122.65 118.507 124.374 116.783 126.5 116.783C128.626 116.783 130.35 118.507 130.35 120.633C130.35 122.76 128.626 124.483 126.5 124.483C124.374 124.483 122.65 122.76 122.65 120.633Z" fill="#442A19"/>
<path fill-rule="evenodd" clip-rule="evenodd" d="M25.6667 98.2666C24.4516 98.2666 23.4667 99.2516 23.4667 100.467V140.8C23.4667 142.015 24.4516 143 25.6667 143H146.667C147.882 143 148.867 142.015 148.867 140.8V100.467C148.867 99.2516 147.882 98.2666 146.667 98.2666H25.6667ZM27.8667 138.6V102.667H144.467V138.6H27.8667Z" fill="#442A19"/>
</svg>
