<svg width="112" height="112" viewBox="0 0 112 112" fill="none" xmlns="http://www.w3.org/2000/svg">
<path d="M10.2667 22.0801C10.2667 19.6795 12.2144 17.7334 14.6169 17.7334H87.1165C89.5191 17.7334 91.4667 19.6795 91.4667 22.0801V78.72C91.4667 81.1207 89.5191 83.0667 87.1165 83.0667H14.6169C12.2144 83.0667 10.2667 81.1207 10.2667 78.72V22.0801Z" fill="#3AAA35"/>
<path fill-rule="evenodd" clip-rule="evenodd" d="M30.4745 28C28.333 28 26.2793 28.8451 24.765 30.3493C23.2507 31.8536 22.4 33.8938 22.4 36.0211V87.1789C22.4 89.3062 23.2507 91.3464 24.765 92.8507C26.2793 94.3549 28.333 95.2 30.4745 95.2H95.5255C97.667 95.2 99.7208 94.3549 101.235 92.8507C102.749 91.3464 103.6 89.3062 103.6 87.1789V36.0211C103.6 33.8938 102.749 31.8536 101.235 30.3493C99.7208 28.8451 97.667 28 95.5255 28H30.4745ZM27.7037 31.327C28.5369 30.8417 29.4921 30.5796 30.4745 30.5796H95.5255C96.51 30.5796 97.4671 30.8428 98.3015 31.3301L64.3223 63.8786L27.7037 31.327ZM25.8353 33.1277C25.2917 33.9878 24.9968 34.9893 24.9968 36.0211V87.1789C24.9968 88.6221 25.5739 90.0062 26.6012 91.0267C27.6284 92.0471 29.0217 92.6204 30.4745 92.6204H95.5255C96.9783 92.6204 98.3716 92.0471 99.3989 91.0267C100.426 90.0062 101.003 88.6221 101.003 87.1789V36.0211C101.003 34.9896 100.708 33.9883 100.165 33.1284L65.2565 66.5671C64.767 67.036 63.9962 67.0503 63.4895 66.5998L25.8353 33.1277Z" fill="white"/>
</svg>
