<svg width="112" height="112" viewBox="0 0 112 112" fill="none" xmlns="http://www.w3.org/2000/svg">
<path d="M72.5943 38.4894C72.5943 53.0284 47.9163 79.0069 47.9163 79.0069C47.9163 79.0069 23.2384 53.0284 23.2384 38.4894C23.2384 23.5827 35.9907 14.9331 47.9163 14.9331C59.842 14.9331 72.5943 23.5827 72.5943 38.4894Z" fill="#B41919"/>
<path fill-rule="evenodd" clip-rule="evenodd" d="M47.2126 47.7108C47.2126 42.8489 51.154 38.9075 56.016 38.9075C60.878 38.9075 64.8194 42.8489 64.8194 47.7108C64.8194 52.5728 60.878 56.5142 56.016 56.5142C51.154 56.5142 47.2126 52.5728 47.2126 47.7108ZM56.016 41.7075C52.7004 41.7075 50.0126 44.3953 50.0126 47.7108C50.0126 51.0264 52.7004 53.7142 56.016 53.7142C59.3316 53.7142 62.0194 51.0264 62.0194 47.7108C62.0194 44.3953 59.3316 41.7075 56.016 41.7075Z" fill="white"/>
<path fill-rule="evenodd" clip-rule="evenodd" d="M56.0166 87.1066C55.0016 88.0708 55.0013 88.0706 55.001 88.0703L54.9999 88.0691L54.996 88.065L54.9816 88.0497L54.9265 87.9913C54.8783 87.9402 54.8075 87.8647 54.7156 87.7661C54.5317 87.569 54.2634 87.2793 53.9225 86.9062C53.241 86.16 52.2692 85.0797 51.1039 83.7386C48.7746 81.0578 45.6656 77.3274 42.5535 73.1344C39.445 68.9464 36.3121 64.2688 33.9507 59.696C31.6077 55.1591 29.9387 50.5655 29.9387 46.5891C29.9387 30.7191 43.5227 21.6328 56.0166 21.6328C68.5105 21.6328 82.0946 30.7191 82.0946 46.5891C82.0946 50.5655 80.4255 55.1591 78.0825 59.696C75.7211 64.2688 72.5882 68.9464 69.4797 73.1344C66.3676 77.3274 63.2586 81.0578 60.9293 83.7386C59.764 85.0797 58.7923 86.16 58.1107 86.9062C57.7698 87.2793 57.5015 87.569 57.3176 87.7661C57.2257 87.8647 57.1549 87.9402 57.1067 87.9913L57.0517 88.0497L57.0372 88.065L57.0333 88.0691L57.0322 88.0703C57.0319 88.0706 57.0316 88.0708 56.0166 87.1066ZM56.0166 24.4328C44.6593 24.4328 32.7387 32.6457 32.7387 46.5891C32.7387 49.8823 34.1543 53.9882 36.4385 58.4113C38.7042 62.7985 41.7408 67.3416 44.8018 71.4656C47.8591 75.5846 50.9196 79.2575 53.2175 81.9021C54.3657 83.2236 55.3219 84.2865 55.9899 85.0178L56.0166 85.047L56.0433 85.0178C56.7113 84.2865 57.6675 83.2236 58.8157 81.9021C61.1136 79.2575 64.1741 75.5846 67.2314 71.4656C70.2924 67.3416 73.329 62.7985 75.5947 58.4113C77.8789 53.9882 79.2945 49.8823 79.2945 46.5891C79.2945 32.6457 67.3739 24.4328 56.0166 24.4328Z" fill="white"/>
<path d="M56.0166 87.1066L57.0322 88.0703C56.7679 88.3485 56.4004 88.5066 56.0166 88.5066C55.6328 88.5066 55.2653 88.3485 55.001 88.0703L56.0166 87.1066Z" fill="white"/>
<path d="M38.9696 80.0258C39.7325 79.8996 40.2486 79.1789 40.1225 78.4161C39.9963 77.6533 39.2756 77.1371 38.5128 77.2633C33.2817 78.1283 28.8171 79.3813 25.6209 80.9305C24.0252 81.7039 22.6762 82.5841 21.7078 83.5844C20.7338 84.5905 20.0667 85.8054 20.0667 87.1954C20.0667 89.2688 21.5261 90.9333 23.398 92.1977C25.3188 93.4952 28.0062 94.6085 31.2012 95.5214C37.6104 97.3526 46.3832 98.4666 56.0158 98.4666C65.6484 98.4666 74.4212 97.3526 80.8303 95.5214C84.0254 94.6085 86.7128 93.4952 88.6335 92.1977C90.5054 90.9333 91.9649 89.2688 91.9649 87.1954C91.9649 85.8054 91.2978 84.5905 90.3238 83.5844C89.3554 82.5841 88.0063 81.7039 86.4107 80.9305C83.2144 79.3813 78.7498 78.1283 73.5188 77.2633C72.7559 77.1371 72.0352 77.6533 71.9091 78.4161C71.7829 79.1789 72.2991 79.8996 73.0619 80.0258C78.1573 80.8684 82.33 82.0642 85.1894 83.4501C86.6216 84.1443 87.655 84.8532 88.3121 85.5319C88.9635 86.2048 89.1649 86.7587 89.1649 87.1954C89.1649 87.8477 88.6909 88.78 87.0662 89.8775C85.4904 90.9419 83.1182 91.9557 80.0611 92.8291C73.9659 94.5707 65.4642 95.6666 56.0158 95.6666C46.5674 95.6666 38.0656 94.5707 31.9705 92.8291C28.9134 91.9557 26.5411 90.9419 24.9653 89.8775C23.3407 88.78 22.8667 87.8477 22.8667 87.1954C22.8667 86.7587 23.0681 86.2048 23.7195 85.5319C24.3766 84.8532 25.4099 84.1443 26.8421 83.4501C29.7015 82.0642 33.8742 80.8684 38.9696 80.0258Z" fill="white"/>
</svg>
