<svg width="112" height="112" viewBox="0 0 112 112" fill="none" xmlns="http://www.w3.org/2000/svg">
<path d="M63.2248 62.1982L56.9878 69.9877C47.3295 64.3117 39.2797 56.2647 33.6003 46.6084L41.3966 40.3714C42.3103 39.6398 42.956 38.6263 43.2328 37.489C43.5097 36.3518 43.4023 35.1549 42.9272 34.0852L35.821 18.0826C35.3115 16.9346 34.4107 16.0049 33.2794 15.4593C32.1481 14.9137 30.8598 14.7876 29.6441 15.1035L16.1151 18.6129C14.853 18.9428 13.7557 19.7241 13.0311 20.8089C12.3065 21.8936 12.0049 23.2064 12.1835 24.4987C14.5576 41.4049 22.3712 57.0787 34.443 69.1505C46.5148 81.2223 62.1886 89.0359 79.0948 91.41C80.387 91.5885 81.6999 91.287 82.7846 90.5624C83.8694 89.8378 84.6507 88.7405 84.9806 87.4784L88.49 73.9494C88.8052 72.7339 88.6789 71.446 88.1336 70.3149C87.5883 69.1839 86.6594 68.2829 85.5122 67.7725L69.5111 60.6663C68.4413 60.1907 67.2441 60.083 66.1067 60.3602C64.9693 60.6374 63.9558 61.2838 63.2248 62.1982Z" fill="#F39208"/>
<path fill-rule="evenodd" clip-rule="evenodd" d="M40.5051 19.3549C42.0417 18.9557 43.6701 19.1152 45.1001 19.8048C46.5302 20.4946 47.6688 21.6698 48.313 23.121L55.4192 39.1235C56.0198 40.4758 56.1557 41.989 55.8056 43.4268C55.4556 44.8645 54.6393 46.1459 53.4842 47.0708L46.6434 52.5434C51.9499 61.1897 59.2238 68.4609 67.8721 73.7643L73.3438 66.9306C74.268 65.7746 75.5497 64.957 76.9877 64.6065C78.4259 64.2561 79.9397 64.3922 81.2923 64.9936L97.2929 72.0995L97.2939 72.0999C98.7439 72.7451 99.918 73.8839 100.607 75.3135C101.296 76.7432 101.456 78.371 101.058 79.9073L97.5483 93.4364L97.5476 93.439C97.131 95.0326 96.1445 96.4181 94.7748 97.3331C93.4051 98.248 91.7474 98.6288 90.1157 98.4034L90.1126 98.4029C72.9053 95.9865 56.9523 88.0338 44.6655 75.747C32.3787 63.4602 24.426 47.5073 22.0096 30.2999L22.0091 30.2968C21.7837 28.6652 22.1645 27.0075 23.0795 25.6378C23.9944 24.2681 25.3799 23.2815 26.9735 22.8649L26.9761 22.8643L40.5051 19.3549ZM43.8837 22.3268C43.0513 21.9253 42.1033 21.8326 41.2088 22.065L27.6816 25.5739L27.6805 25.5742C26.7504 25.8176 25.9418 26.3936 25.4078 27.193C24.8738 27.9924 24.6514 28.9598 24.7826 29.9122C27.1147 46.5167 34.789 61.9107 46.6454 73.7671C58.5015 85.6232 73.895 93.2974 90.4989 95.6297C91.4517 95.7614 92.4197 95.539 93.2195 95.0047C94.0187 94.4709 94.5945 93.6626 94.8381 92.7329L94.8386 92.7309L98.3473 79.2045C98.5793 78.3099 98.4863 77.362 98.085 76.5294C97.6837 75.6969 97 75.0338 96.1556 74.6581L80.1553 67.5523C79.3685 67.2025 78.4873 67.1231 77.6507 67.3269C76.814 67.5308 76.0686 68.0063 75.5309 68.6789L69.2932 76.4692C68.8583 77.0123 68.0908 77.1537 67.491 76.8012C57.6273 71.0046 49.4062 62.7864 43.6061 52.9247C43.2532 52.3247 43.3947 51.5566 43.9383 51.1217L51.7341 44.8851C52.406 44.3469 52.8814 43.6009 53.0851 42.7644C53.2888 41.9276 53.2097 41.047 52.8602 40.2599L45.754 24.2574C45.379 23.4126 44.7162 22.7283 43.8837 22.3268Z" fill="white"/>
</svg>
