<svg width="3440" height="286" viewBox="0 0 3440 286" fill="none" xmlns="http://www.w3.org/2000/svg">
<g clip-path="url(#clip0_316_8544)">
<rect width="3440" height="286" fill="#006633"/>
<path d="M2773 0H667V286H2773V0Z" fill="#006633"/>
<path d="M1726.25 6L1737.64 72.2415L1771.31 13.9094L1758.93 80.1509L1810.93 36.649L1776.76 94.9811L1840.65 71.7472L1788.15 114.755L1856 114.26L1792.11 137L1856 159.74L1788.15 159.245L1840.65 202.253L1776.76 179.019L1810.93 237.351L1758.93 193.849L1771.31 260.091L1737.64 201.758L1726.25 268L1714.86 201.758L1681.18 260.091L1693.56 193.849L1641.56 237.351L1675.73 179.019L1611.85 202.253L1664.34 159.245L1596.5 159.74L1660.38 137L1596 114.26L1663.85 114.755L1611.35 71.7472L1675.24 94.9811L1641.07 36.649L1693.07 80.1509L1680.69 13.9094L1714.36 72.2415L1726.25 6Z" fill="#F39208"/>
<path d="M1727.74 132.171C1733.38 146.891 1724.81 163.95 1724.81 163.95C1724.81 163.95 1707.13 157.1 1701.52 142.38C1695.89 127.659 1704.43 110.6 1704.43 110.6C1704.43 110.6 1722.11 117.45 1727.71 132.171H1727.74Z" fill="#3AAA35"/>
<path d="M1749.73 143.334C1743.15 157.693 1724.87 163.752 1724.87 163.752C1724.87 163.752 1717.27 146.595 1723.84 132.236C1730.41 117.911 1748.69 111.818 1748.69 111.818C1748.69 111.818 1756.3 128.976 1749.73 143.334Z" fill="#008E39"/>
<path d="M-49.9601 307.454C62.1362 194.256 292.48 86.0635 845.443 86.0635C1398.41 86.0635 1797.58 169.999 1952.74 307.454C2080.55 420.652 1995.8 503.432 1995.8 503.432L-98.4896 497.657C-97.8061 497.657 -150.437 408.716 -49.9601 307.454Z" fill="#946137"/>
<path d="M77.172 326.704C180.383 218.127 371.767 114.555 879.617 114.555C1387.47 114.555 1783.91 208.116 1903.52 315.154C2023.82 423.346 1956.84 514.597 1956.84 514.597L33.4271 508.822C33.4271 509.207 -15.1024 424.116 77.172 326.704Z" fill="#633F1B"/>
<path d="M170.815 339.796C264.456 243.154 468.143 150.748 931.566 150.748C1394.99 150.748 1759.99 242.384 1848.84 339.796C1941.12 441.443 1885.07 507.282 1885.07 507.282L130.487 502.277C130.487 502.277 86.059 426.427 170.815 339.796Z" fill="#442A19"/>
<path d="M258.301 362.513C344.424 268.181 478.393 178.085 902.172 178.085C1325.95 178.085 1711.45 267.411 1792.11 362.513C1876.86 461.85 1825.6 525.764 1825.6 525.764L221.392 520.759C221.392 520.759 181.064 446.834 258.301 362.513Z" fill="#292522"/>
<path d="M3517.3 297.828C3405.2 184.631 3174.86 76.438 2621.89 76.438C2068.93 76.438 1669.76 160.374 1514.6 297.828C1386.78 411.026 1471.54 493.807 1471.54 493.807L3565.83 488.032C3565.14 487.647 3617.77 399.09 3517.3 297.828Z" fill="#946137"/>
<path d="M3390.16 317.079C3286.95 208.501 3095.57 104.929 2587.72 104.929C2079.87 104.929 1683.43 198.491 1563.81 305.528C1443.52 413.721 1510.5 504.972 1510.5 504.972L3433.91 499.197C3433.91 499.197 3482.44 414.106 3390.16 317.079Z" fill="#633F1B"/>
<path d="M3297.2 330.171C3202.88 233.145 2999.88 140.738 2536.45 140.738C2073.03 140.738 1708.03 232.375 1619.18 329.786C1526.9 431.433 1582.95 497.273 1582.95 497.273L3337.53 492.268C3336.85 492.268 3381.28 416.417 3297.2 330.171Z" fill="#442A19"/>
<path d="M3209.03 352.502C3122.91 258.17 2988.94 168.074 2565.16 168.074C2141.38 168.074 1755.88 257.4 1675.23 352.502C1590.47 451.838 1641.73 515.753 1641.73 515.753L3245.94 510.748C3245.94 511.133 3286.27 437.207 3209.03 352.502Z" fill="#292522"/>
</g>
<defs>
<clipPath id="clip0_316_8544">
<rect width="3440" height="286" fill="white"/>
</clipPath>
</defs>
</svg>
