<svg width="155" height="56" viewBox="0 0 155 56" fill="none" xmlns="http://www.w3.org/2000/svg">
<path d="M93.973 18.3492C95.9508 18.3492 96.9177 20.283 96.9177 21.8433H96.9104V26.0479C96.9104 27.2932 97.3228 27.7243 97.6521 28.0686C97.8709 28.2973 98.0531 28.4878 98.0531 28.8533C98.0531 29.432 97.6136 29.8788 96.2584 29.8788C93.6581 29.8788 92.3542 28.238 92.3542 25.9892V23.4914C92.3542 22.1143 91.5192 21.4038 90.6255 21.4038C90.0175 21.4038 89.3656 21.7114 88.9188 22.378V26.0479C88.9188 27.2932 89.3312 27.7243 89.6605 28.0686C89.8793 28.2973 90.0615 28.4878 90.0615 28.8533C90.0615 29.432 89.5854 29.8788 88.9188 29.8788H84.3406C83.6447 29.8788 83.1979 29.4393 83.1979 28.8826C83.1979 28.5231 83.3769 28.3266 83.5932 28.0891C83.9234 27.7264 84.3406 27.2683 84.3406 25.9892V18.0709C84.3406 16.7204 83.8723 16.2885 83.5353 15.9776C83.3459 15.8029 83.1979 15.6664 83.1979 15.4265C83.1979 14.3571 86.1646 12.9067 87.3292 12.9067C88.2742 12.9067 88.9261 13.859 88.9261 15.4851V20.8471C90.2886 19.3308 92.6033 18.3492 93.973 18.3492Z" fill="#442A19"/>
<path d="M69.7052 15.0457C69.7052 14.489 69.2364 14.0202 67.8227 14.0202C65.5373 14.0202 64.1382 15.1775 63.3764 17.3604L61.1569 23.7478L59.0253 17.8512C58.0584 15.2288 56.315 14.0202 53.1726 14.0202C51.2388 14.0202 50.9751 14.489 50.9751 14.8699C50.9751 15.2765 51.285 15.5098 51.6519 15.786C52.1839 16.1865 52.8357 16.6771 52.8357 17.9171V25.9966C52.8357 27.2526 52.2228 27.7167 51.7269 28.0922C51.3899 28.3474 51.1069 28.5617 51.1069 28.9559C51.1069 29.4467 51.5538 29.8935 52.2497 29.8935H54.9819C55.6778 29.8935 56.1246 29.454 56.1246 28.9559C56.1246 28.5437 55.8367 28.3305 55.4973 28.0792C55.0105 27.7187 54.4179 27.2798 54.4179 26.0625V19.7483L56.7252 26.0625C57.3918 27.9597 58.2049 29.8935 59.5527 29.8935C59.9776 29.8935 60.7687 29.6957 61.3913 27.9597L63.9697 20.5761V26.0698C63.9697 27.3099 63.5579 27.7422 63.2287 28.0877C63.0095 28.3178 62.827 28.5094 62.827 28.8753C62.827 29.4613 63.2738 29.9008 63.9697 29.9008H68.5479C69.2144 29.9008 69.6906 29.4613 69.6906 28.9046C69.6906 28.541 69.5103 28.3426 69.293 28.1033C68.9631 27.7402 68.5479 27.283 68.5479 26.0112V17.9317C68.5479 16.6685 68.9633 16.2149 69.2932 15.8548C69.5104 15.6176 69.6906 15.4209 69.6906 15.0603L69.7052 15.0457Z" fill="#442A19"/>
<path fill-rule="evenodd" clip-rule="evenodd" d="M81.8354 24.9419V23.8285C81.8354 20.5322 79.865 18.3347 76.9203 18.3347C76.1463 18.3347 75.6719 18.4845 75.2769 18.6092C74.9954 18.6981 74.7542 18.7742 74.4738 18.7742C74.1218 18.7742 73.9477 18.6543 73.7813 18.5398C73.6291 18.435 73.4833 18.3347 73.2138 18.3347C71.8367 18.3347 71.8783 20.9563 71.8871 21.5117C71.8876 21.5442 71.888 21.5696 71.888 21.587C71.888 22.0558 72.1517 22.2609 72.452 22.2609C72.9419 22.2609 73.2787 21.6894 73.6458 21.0663C74.0856 20.3198 74.5689 19.4994 75.4114 19.4994C76.283 19.4994 76.935 20.3637 77.162 21.7701C72.8036 21.8141 70.1373 23.6161 70.1373 26.2824C70.1373 28.5604 72.0711 30.1353 74.7155 30.1353C76.0193 30.1353 76.891 29.7325 77.5429 29.1611C77.814 29.7618 78.2828 30.1134 78.8248 30.1134C79.9895 30.1134 82.9708 28.641 82.9708 27.5716C82.9708 27.3421 82.826 27.211 82.6395 27.0422C82.302 26.7368 81.8281 26.3078 81.8281 24.9492L81.8354 24.9419ZM77.2573 26.8537C76.9862 28.1429 76.3563 28.9926 75.7996 28.9926C75.1477 28.9926 74.7228 27.9744 74.7228 26.5241C74.7228 24.4731 75.6238 22.9348 77.2646 22.8982V26.8537H77.2573Z" fill="#442A19"/>
<path fill-rule="evenodd" clip-rule="evenodd" d="M104.323 18.3419C100.895 18.3419 98.1556 20.6126 98.1556 24.2385C98.1556 27.8644 100.895 30.1352 104.323 30.1352C107.751 30.1352 110.491 27.8644 110.491 24.2385C110.491 20.6126 107.751 18.3419 104.323 18.3419ZM104.323 28.9925C103.349 28.9925 102.726 27.0367 102.726 24.1433C102.726 21.2719 103.305 19.4626 104.294 19.4626C105.283 19.4626 105.913 21.3305 105.913 24.2019C105.913 27.0733 105.297 28.9851 104.323 28.9851V28.9925Z" fill="#442A19"/>
<path d="M124.474 20.9424V24.9492H124.482C124.482 26.3078 124.956 26.7368 125.293 27.0422C125.48 27.2111 125.624 27.3421 125.624 27.5716C125.624 28.6411 122.658 30.1134 121.493 30.1134C120.57 30.1134 119.948 29.1758 119.926 27.5716C118.541 29.1099 116.241 30.1134 114.857 30.1134C112.908 30.1134 111.912 28.1503 111.912 26.6193V23.5062C111.912 22.1476 111.438 21.7186 111.101 21.4132C110.914 21.2444 110.769 21.1133 110.769 20.8838C110.769 19.8144 113.729 18.364 114.893 18.364C115.838 18.364 116.49 19.3163 116.49 20.9424V24.9492C116.49 26.3263 117.311 27.0588 118.212 27.0588C118.819 27.0588 119.471 26.7292 119.918 26.0626V23.5062C119.918 22.1476 119.444 21.7186 119.107 21.4132C118.92 21.2444 118.776 21.1133 118.776 20.8838C118.776 19.8144 121.742 18.364 122.907 18.364C123.852 18.364 124.474 19.3163 124.474 20.9424Z" fill="#442A19"/>
<path d="M139.762 21.8434C139.762 20.2832 138.795 18.3494 136.817 18.3494C135.455 18.3494 133.133 19.3529 131.77 20.8692C131.748 19.287 131.104 18.3494 130.181 18.3494C129.016 18.3494 126.049 19.7997 126.049 20.8692C126.049 21.0987 126.194 21.2297 126.381 21.3985C126.718 21.704 127.192 22.1329 127.192 23.4915V25.9894C127.192 27.2685 126.775 27.7266 126.445 28.0892C126.228 28.3267 126.049 28.5233 126.049 28.8828C126.049 29.4395 126.496 29.879 127.192 29.879H131.763C132.429 29.879 132.906 29.4321 132.906 28.8535C132.906 28.4879 132.723 28.2975 132.505 28.0687C132.175 27.7244 131.763 27.2933 131.763 26.048V22.3781C132.21 21.7116 132.862 21.4039 133.47 21.4039C134.371 21.4039 135.198 22.1144 135.198 23.4915V25.9894C135.198 28.0331 136.209 29.879 139.059 29.879C140.45 29.879 140.897 29.4321 140.897 28.8535C140.897 28.4879 140.715 28.2975 140.496 28.0687C140.167 27.7244 139.755 27.2933 139.755 26.048V21.8434H139.762Z" fill="#442A19"/>
<path fill-rule="evenodd" clip-rule="evenodd" d="M152.918 23.8285V24.9419L152.925 24.9492C152.925 26.3078 153.399 26.7368 153.736 27.0422C153.923 27.211 154.068 27.3421 154.068 27.5716C154.068 28.641 151.079 30.1134 149.914 30.1134C149.372 30.1134 148.903 29.7618 148.632 29.1611C147.981 29.7325 147.109 30.1353 145.805 30.1353C143.161 30.1353 141.227 28.5604 141.227 26.2824C141.227 23.6161 143.893 21.8141 148.252 21.7701C148.024 20.3637 147.373 19.4994 146.501 19.4994C145.654 19.4994 145.168 20.3216 144.727 21.0687C144.36 21.6908 144.023 22.2609 143.534 22.2609C143.234 22.2609 142.97 22.0558 142.97 21.587C142.97 21.5696 142.97 21.5442 142.969 21.5117C142.96 20.9562 142.919 18.3347 144.296 18.3347C144.565 18.3347 144.711 18.435 144.863 18.5398C145.03 18.6543 145.204 18.7742 145.556 18.7742C145.836 18.7742 146.078 18.6981 146.359 18.6092C146.754 18.4845 147.228 18.3347 148.002 18.3347C150.947 18.3347 152.918 20.5322 152.918 23.8285ZM146.882 28.9926C147.438 28.9926 148.068 28.1429 148.339 26.8537H148.347V22.8982C146.706 22.9348 145.805 24.4731 145.805 26.5241C145.805 27.9744 146.23 28.9926 146.882 28.9926Z" fill="#442A19"/>
<path d="M61.5156 32.6035H52.0516C51.3558 32.6035 50.9089 33.0943 50.9089 33.651C50.9089 34.0158 51.0903 34.2143 51.3086 34.4532C51.6381 34.8139 52.0516 35.2665 52.0516 36.5224V43.8914C52.0516 45.1705 51.6345 45.6286 51.3042 45.9912C51.0879 46.2287 50.9089 46.4253 50.9089 46.7848C50.9089 47.3415 51.3558 47.781 52.0516 47.781L56.6298 46.3526C57.2964 46.3526 57.7725 45.9058 57.7725 45.3271C57.7725 44.9611 57.59 44.8842 57.3708 44.7918C57.0416 44.6531 56.6298 44.4795 56.6298 43.2395V40.6171C57.8452 40.6171 58.2821 41.2105 58.6417 41.699C58.8933 42.0408 59.1071 42.3312 59.5232 42.3312C60.0433 42.3312 60.4901 41.8697 60.4901 41.1958V38.4782C60.4901 37.7896 60.0433 37.3428 59.5232 37.3428C59.1194 37.3428 58.904 37.6217 58.6481 37.9531C58.282 38.4273 57.8328 39.009 56.6298 39.0349V37.167C56.6298 37.0931 56.6296 37.0179 56.6295 36.9418C56.6263 35.5031 56.6224 33.7389 57.7285 33.7389C59.1725 33.7389 60.1002 35.2079 60.948 36.5503C61.6614 37.6799 62.3182 38.7199 63.1784 38.7199C64.7459 38.7199 64.1453 32.6035 61.5156 32.6035Z" fill="#008E39"/>
<path fill-rule="evenodd" clip-rule="evenodd" d="M76.1143 40.6757V39.5623C76.1143 36.266 74.1439 34.0685 71.1992 34.0685C70.4252 34.0685 69.9508 34.2183 69.5559 34.343C69.2743 34.4319 69.0332 34.508 68.7527 34.508C68.4007 34.508 68.2266 34.3882 68.0602 34.2736C67.908 34.1688 67.7622 34.0685 67.4928 34.0685C66.1157 34.0685 66.1572 36.6901 66.166 37.2455C66.1665 37.278 66.1669 37.3034 66.1669 37.3208C66.1669 37.7896 66.4306 37.9947 66.731 37.9947C67.2208 37.9947 67.5576 37.4232 67.9247 36.8001C68.3645 36.0536 68.8478 35.2332 69.6903 35.2332C70.562 35.2332 71.2139 36.0976 71.441 37.504C67.0826 37.5479 64.4163 39.3425 64.4163 42.0162C64.4163 44.2943 66.3501 45.8692 68.9944 45.8692C70.2983 45.8692 71.1699 45.4663 71.8219 44.8949C72.0929 45.4956 72.5617 45.8472 73.1037 45.8472C74.2684 45.8472 77.2497 44.3748 77.2497 43.3054C77.2497 43.0759 77.1049 42.9448 76.9184 42.776C76.5809 42.4706 76.107 42.0416 76.107 40.683L76.1143 40.6757ZM71.5289 42.5949C71.2578 43.8841 70.6279 44.7338 70.0712 44.7338C69.4193 44.7338 68.9944 43.7156 68.9944 42.2652C68.9944 40.2142 69.8954 38.676 71.5362 38.6393V42.5949H71.5289Z" fill="#008E39"/>
<path d="M84.0253 36.5149C85.1873 35.046 86.7211 34.0948 87.7466 34.0904C88.7754 34.0947 89.4898 34.9871 89.4898 36.2512C89.4898 37.5185 88.728 38.4121 87.6073 38.4121C86.8162 38.4121 86.5586 37.9762 86.3302 37.5898C86.1483 37.2821 85.985 37.0057 85.5856 37.0057C85.0875 37.0057 84.4649 37.4745 84.018 38.0971V41.789C84.018 43.0343 84.4304 43.4654 84.7597 43.8097C84.9786 44.0384 85.1607 44.2289 85.1607 44.5944C85.1607 45.1731 84.6846 45.6199 84.018 45.6199H79.4472C78.7513 45.6199 78.3045 45.1804 78.3045 44.6237C78.3045 44.2643 78.4835 44.0677 78.6998 43.8302C79.03 43.4675 79.4472 43.0094 79.4472 41.7304V39.2325C79.4472 37.8739 78.9733 37.4449 78.6358 37.1395C78.4493 36.9707 78.3045 36.8396 78.3045 36.6102C78.3045 35.5407 81.2711 34.0903 82.4358 34.0903C83.3588 34.0903 83.9814 35.006 84.0253 36.5149Z" fill="#008E39"/>
<path d="M87.7466 34.0904L87.7538 34.0903H87.7391L87.7466 34.0904Z" fill="#008E39"/>
<path d="M112.264 37.5844C112.264 36.0241 111.267 34.0903 109.319 34.0903C107.883 34.0903 105.503 35.1085 104.155 36.6907C103.869 35.3795 102.924 34.0903 101.327 34.0903C99.9648 34.0903 97.6427 35.0939 96.2803 36.6102C96.2583 35.0279 95.6137 34.0903 94.6908 34.0903C93.5261 34.0903 90.5594 35.5407 90.5594 36.6102C90.5594 36.8396 90.7043 36.9707 90.8908 37.1395C91.2282 37.4449 91.7021 37.8739 91.7021 39.2325V41.7304C91.7021 43.0094 91.285 43.4675 90.9547 43.8302C90.7384 44.0677 90.5594 44.2643 90.5594 44.6237C90.5594 45.1804 91.0063 45.6199 91.7021 45.6199H96.2803C96.9469 45.6199 97.423 45.1731 97.423 44.5944C97.423 44.2289 97.2408 44.0384 97.022 43.8097C96.6927 43.4654 96.2803 43.0343 96.2803 41.789V38.1191C96.7271 37.4525 97.379 37.1449 97.987 37.1449C98.888 37.1449 99.7157 37.8554 99.7157 39.2325V41.7304C99.7157 44.1769 100.719 45.6199 103.466 45.6199C104.968 45.6199 105.415 45.1731 105.415 44.5944C105.415 44.2289 105.232 44.0384 105.014 43.8097C104.684 43.4654 104.272 43.0343 104.272 41.789V38.0971C104.719 37.4525 105.349 37.1449 105.957 37.1449C106.85 37.1449 107.685 37.8554 107.685 39.2325V41.7304C107.685 43.774 108.718 45.6199 111.546 45.6199C112.959 45.6199 113.406 45.1731 113.406 44.5944C113.406 44.2289 113.224 44.0384 113.005 43.8097C112.676 43.4654 112.264 43.0343 112.264 41.789V37.5844Z" fill="#008E39"/>
<path d="M120.621 35.2259C119.793 35.2259 119.207 35.8046 119.207 36.6323H119.222C119.222 37.8346 120.531 38.42 121.939 39.0494C123.576 39.7812 125.346 40.5727 125.346 42.463C125.346 44.4628 123.324 45.8618 120.365 45.8618C119.298 45.8618 118.717 45.6834 118.272 45.5467C117.995 45.4618 117.771 45.393 117.515 45.393C117.16 45.393 116.992 45.5261 116.835 45.6504C116.698 45.7595 116.568 45.8618 116.329 45.8618C114.827 45.8618 114.732 41.9869 114.732 41.7232C114.732 41.3057 114.937 41.0346 115.23 41.0346C115.686 41.0346 116.054 41.6423 116.489 42.3631C117.125 43.4137 117.905 44.7045 119.317 44.7045C120.218 44.7045 120.841 44.1698 120.841 43.4592C120.841 42.492 119.703 42.0076 118.41 41.4569C116.706 40.7314 114.732 39.8909 114.732 37.6798C114.732 35.5628 116.505 34.0685 119.105 34.0685C119.949 34.0685 120.618 34.2251 121.157 34.3514C121.521 34.4366 121.826 34.508 122.086 34.508C122.43 34.508 122.605 34.3827 122.769 34.2659C122.911 34.164 123.044 34.0685 123.273 34.0685C124.775 34.0685 124.87 37.9215 124.87 38.2072C124.87 38.6979 124.621 38.8957 124.372 38.8957C123.892 38.8957 123.516 38.233 123.083 37.4708C122.498 36.4394 121.809 35.2259 120.621 35.2259Z" fill="#008E39"/>
<path d="M21.2646 0C9.52255 0 0.00732422 9.43464 0.00732422 21.0668V34.9258C0.00732422 46.5652 9.52255 55.9999 21.2573 55.9999C32.992 55.9999 42.5072 46.5652 42.5072 34.9331V21.0741C42.5145 9.43464 32.9993 0 21.2646 0Z" fill="#F39208"/>
<path d="M21.3818 8.53369L23.0812 18.3712L28.0695 9.69837L26.2749 19.5212L33.9515 13.0606L28.8753 21.6821L38.3173 18.2247L30.5747 24.5975L40.6393 24.5462L31.1607 27.9084L40.6393 31.2706L30.5747 31.2193L38.3173 37.5921L28.8753 34.1274L33.9515 42.7489L26.2749 36.2956L28.0695 46.1111L23.0812 37.4383L21.3818 47.2758L19.6824 37.4383L14.694 46.1111L16.4887 36.2956L8.81203 42.7489L13.8883 34.1274L4.4463 37.5921L12.1889 31.2193L2.12427 31.2706L11.6029 27.9084L2.12427 24.5462L12.1889 24.5975L4.4463 18.2247L13.8883 21.6821L8.81203 13.0606L16.4887 19.5212L14.694 9.69837L19.6824 18.3712L21.3818 8.53369Z" fill="white"/>
<path d="M21.9019 27.4248C23.1178 30.6112 21.2719 34.303 21.2719 34.303C21.2719 34.303 17.4629 32.8234 16.2543 29.6297C15.0456 26.4433 16.8842 22.7515 16.8842 22.7515C16.8842 22.7515 20.6932 24.2311 21.9019 27.4248Z" fill="#3AAA35"/>
<path d="M26.6411 29.8421C25.2274 32.9479 21.2865 34.2664 21.2865 34.2664C21.2865 34.2664 19.6457 30.5526 21.0668 27.4395C22.4805 24.3336 26.4214 23.0151 26.4214 23.0151C26.4214 23.0151 28.0622 26.7289 26.6411 29.8421Z" fill="#008E39"/>
<path d="M42.5146 34.9333V29.2197C41.599 29.1099 40.676 29.0513 39.7311 29.0513C27.0221 29.0513 16.7158 39.2697 16.7158 51.8688C16.7158 53.136 16.8257 54.3739 17.0235 55.5825C18.3933 55.8536 19.807 56.0001 21.25 56.0001C32.9847 56.0001 42.4999 46.5654 42.4999 34.9333H42.5146Z" fill="#D69054"/>
<path d="M18.1881 51.8611C18.1881 40.0898 27.8571 30.5086 39.7383 30.5086C40.6833 30.5086 41.6062 30.5746 42.5218 30.6918V27.7398C41.6062 27.6372 40.6833 27.5786 39.7383 27.5786C26.2383 27.5786 15.2581 38.4709 15.2581 51.8611C15.2581 52.9965 15.346 54.1099 15.4925 55.2086C16.4887 55.487 17.5142 55.6921 18.5616 55.8239C18.3199 54.5421 18.1807 53.2162 18.1807 51.8611H18.1881Z" fill="white"/>
<path d="M0.00732504 27.7544V34.9256C0.00732504 46.5651 9.52255 55.9924 21.2573 55.9924C22.6344 55.9924 23.9822 55.8605 25.286 55.6115C25.0443 41.2325 14.0934 29.4538 0 27.7471L0.00732504 27.7544Z" fill="#D69054"/>
<path d="M42.3974 37.1309C42.1484 37.1162 41.8993 37.1089 41.6429 37.1089C32.6258 37.1089 25.3154 44.3533 25.3154 53.2972C25.3154 54.0737 25.374 54.8355 25.4839 55.5826C34.4937 53.7807 41.4305 46.3384 42.3974 37.1309Z" fill="#946137"/>
<path d="M16.2835 55.4142C15.551 46.3531 8.87793 38.9548 0.117188 37.0649C1.02549 46.0454 7.62535 53.3485 16.2835 55.4142Z" fill="#946137"/>
<path d="M0.0219727 35.5483C0.0512728 36.5958 0.161148 37.6213 0.336949 38.6175C8.02824 40.5147 13.8956 47.0193 14.7673 54.989C15.7415 55.2966 16.7377 55.5384 17.7705 55.7068C17.1552 45.6862 9.72032 37.4675 0.0219727 35.5483Z" fill="white"/>
<path d="M0.00732422 26.2822V29.2342C13.3462 30.9409 23.7038 42.1995 23.8357 55.8461C24.8319 55.7289 25.8061 55.5457 26.751 55.2894C26.3408 40.2804 14.7819 27.989 0.00732422 26.2822Z" fill="white"/>
<path d="M26.7877 53.2969C26.7877 45.1808 33.4535 38.5736 41.6502 38.5736C41.8333 38.5736 42.0091 38.5955 42.1922 38.6029C42.3607 37.6433 42.4706 36.6617 42.4999 35.6655C42.2142 35.6509 41.9359 35.6436 41.6502 35.6436C31.842 35.6436 23.8577 43.5619 23.8577 53.2969C23.8577 54.1539 23.9236 54.989 24.0408 55.8167C25.0297 55.6922 25.9892 55.4944 26.9342 55.238C26.8463 54.6007 26.7877 53.9561 26.7877 53.2969Z" fill="white"/>
</svg>
