<svg width="43" height="56" viewBox="0 0 43 56" fill="none" xmlns="http://www.w3.org/2000/svg">
<path d="M21.2646 0C9.52255 0 0.00732422 9.43464 0.00732422 21.0668V34.9258C0.00732422 46.5652 9.52255 55.9999 21.2573 55.9999C32.992 55.9999 42.5072 46.5652 42.5072 34.9331V21.0741C42.5145 9.43464 32.9993 0 21.2646 0Z" fill="#F39208"/>
<path d="M21.3818 8.53369L23.0812 18.3712L28.0695 9.69837L26.2749 19.5212L33.9515 13.0606L28.8753 21.6821L38.3173 18.2247L30.5747 24.5975L40.6393 24.5462L31.1607 27.9084L40.6393 31.2706L30.5747 31.2193L38.3173 37.5921L28.8753 34.1274L33.9515 42.7489L26.2749 36.2956L28.0695 46.1111L23.0812 37.4383L21.3818 47.2758L19.6824 37.4383L14.694 46.1111L16.4887 36.2956L8.81203 42.7489L13.8883 34.1274L4.4463 37.5921L12.1889 31.2193L2.12427 31.2706L11.6029 27.9084L2.12427 24.5462L12.1889 24.5975L4.4463 18.2247L13.8883 21.6821L8.81203 13.0606L16.4887 19.5212L14.694 9.69837L19.6824 18.3712L21.3818 8.53369Z" fill="white"/>
<path d="M21.9019 27.4248C23.1178 30.6112 21.2719 34.303 21.2719 34.303C21.2719 34.303 17.4629 32.8234 16.2543 29.6297C15.0456 26.4433 16.8842 22.7515 16.8842 22.7515C16.8842 22.7515 20.6932 24.2311 21.9019 27.4248Z" fill="#3AAA35"/>
<path d="M26.6411 29.8421C25.2274 32.9479 21.2865 34.2664 21.2865 34.2664C21.2865 34.2664 19.6457 30.5526 21.0668 27.4395C22.4805 24.3336 26.4214 23.0151 26.4214 23.0151C26.4214 23.0151 28.0622 26.7289 26.6411 29.8421Z" fill="#008E39"/>
<path d="M42.5146 34.9333V29.2197C41.599 29.1099 40.676 29.0513 39.7311 29.0513C27.0221 29.0513 16.7158 39.2697 16.7158 51.8688C16.7158 53.136 16.8257 54.3739 17.0235 55.5825C18.3933 55.8536 19.807 56.0001 21.25 56.0001C32.9847 56.0001 42.4999 46.5654 42.4999 34.9333H42.5146Z" fill="#D69054"/>
<path d="M18.1881 51.8611C18.1881 40.0898 27.8571 30.5086 39.7383 30.5086C40.6833 30.5086 41.6062 30.5746 42.5218 30.6918V27.7398C41.6062 27.6372 40.6833 27.5786 39.7383 27.5786C26.2383 27.5786 15.2581 38.4709 15.2581 51.8611C15.2581 52.9965 15.346 54.1099 15.4925 55.2086C16.4887 55.487 17.5142 55.6921 18.5616 55.8239C18.3199 54.5421 18.1807 53.2162 18.1807 51.8611H18.1881Z" fill="white"/>
<path d="M0.00732504 27.7544V34.9256C0.00732504 46.5651 9.52255 55.9924 21.2573 55.9924C22.6344 55.9924 23.9822 55.8605 25.286 55.6115C25.0443 41.2325 14.0934 29.4538 0 27.7471L0.00732504 27.7544Z" fill="#D69054"/>
<path d="M42.3974 37.1309C42.1484 37.1162 41.8993 37.1089 41.6429 37.1089C32.6258 37.1089 25.3154 44.3533 25.3154 53.2972C25.3154 54.0737 25.374 54.8355 25.4839 55.5826C34.4937 53.7807 41.4305 46.3384 42.3974 37.1309Z" fill="#946137"/>
<path d="M16.2835 55.4142C15.551 46.3531 8.87793 38.9548 0.117188 37.0649C1.02549 46.0454 7.62535 53.3485 16.2835 55.4142Z" fill="#946137"/>
<path d="M0.0219727 35.5483C0.0512728 36.5958 0.161148 37.6213 0.336949 38.6175C8.02824 40.5147 13.8956 47.0193 14.7673 54.989C15.7415 55.2966 16.7377 55.5384 17.7705 55.7068C17.1552 45.6862 9.72032 37.4675 0.0219727 35.5483Z" fill="white"/>
<path d="M0.00732422 26.2822V29.2342C13.3462 30.9409 23.7038 42.1995 23.8357 55.8461C24.8319 55.7289 25.8061 55.5457 26.751 55.2894C26.3408 40.2804 14.7819 27.989 0.00732422 26.2822Z" fill="white"/>
<path d="M26.7877 53.2969C26.7877 45.1808 33.4535 38.5736 41.6502 38.5736C41.8333 38.5736 42.0091 38.5955 42.1922 38.6029C42.3607 37.6433 42.4706 36.6617 42.4999 35.6655C42.2142 35.6509 41.9359 35.6436 41.6502 35.6436C31.842 35.6436 23.8577 43.5619 23.8577 53.2969C23.8577 54.1539 23.9236 54.989 24.0408 55.8167C25.0297 55.6922 25.9892 55.4944 26.9342 55.238C26.8463 54.6007 26.7877 53.9561 26.7877 53.2969Z" fill="white"/>
</svg>
