<svg width="1768" height="1432" viewBox="0 0 1768 1432" fill="none" xmlns="http://www.w3.org/2000/svg">
<path d="M883.563 -38.4468L961.451 334.54L1190.49 5.87915L1107.99 378.055L1460.13 133.451L1227.13 460.22L1660.46 328.864L1305.02 570.494L1767.06 568.602L1332.08 696.174L1767.06 823.747L1305.02 821.855L1660.46 1063.76L1227.13 932.399L1460.13 1259.17L1107.99 1014.29L1190.49 1386.74L961.451 1058.08L883.563 1431.07L805.676 1058.08L576.632 1386.74L659.141 1014.29L306.995 1259.17L539.998 932.399L106.664 1063.76L462.111 821.855L0.0634766 823.747L435.048 696.174L0.0634766 568.602L462.111 570.494L106.664 328.864L539.998 460.22L306.995 133.451L659.141 378.055L576.632 5.87915L805.676 334.54L883.563 -38.4468Z" fill="white" fill-opacity="0.2"/>
</svg>
